<svg width="1280" height="720" viewBox="0 0 1280 720" fill="none" xmlns="http://www.w3.org/2000/svg">
  <rect width="1280" height="720" fill="#F7F0EC"/>
  <rect x="40" y="40" width="1200" height="640" rx="28" fill="#FFF9F6" stroke="#DDCCC3" stroke-width="2"/>
  <rect x="70" y="70" width="430" height="580" rx="24" fill="#F2E2DA"/>
  <circle cx="285" cy="285" r="116" fill="#FFF5F1"/>
  <rect x="180" y="430" width="210" height="20" rx="10" fill="#E1B0A1"/>
  <rect x="160" y="470" width="250" height="16" rx="8" fill="#EFD6CC"/>
  <rect x="170" y="500" width="230" height="16" rx="8" fill="#EFD6CC"/>
  <rect x="540" y="90" width="640" height="86" rx="24" fill="#FFFFFF" stroke="#E6D7D0"/>
  <text x="574" y="144" fill="#3A312E" font-family="Segoe UI, Arial, sans-serif" font-size="34" font-weight="700">Chat View Placeholder</text>
  <rect x="560" y="220" width="430" height="94" rx="24" fill="#FFFFFF"/>
  <rect x="610" y="350" width="520" height="102" rx="24" fill="#2E2A28"/>
  <rect x="560" y="490" width="460" height="88" rx="24" fill="#FFFFFF"/>
  <rect x="540" y="610" width="640" height="36" rx="18" fill="#F0E4DE"/>
  <text x="574" y="274" fill="#4B403D" font-family="Segoe UI, Arial, sans-serif" font-size="24">User bubble</text>
  <text x="646" y="411" fill="#FFF7F2" font-family="Segoe UI, Arial, sans-serif" font-size="24">Vela reply bubble</text>
  <text x="574" y="544" fill="#4B403D" font-family="Segoe UI, Arial, sans-serif" font-size="24">Bridge diary / memory continuation</text>
</svg>
