<svg width="1600" height="900" viewBox="0 0 1600 900" fill="none" xmlns="http://www.w3.org/2000/svg">
  <defs>
    <linearGradient id="bg" x1="160" y1="80" x2="1440" y2="820" gradientUnits="userSpaceOnUse">
      <stop stop-color="#F8E8E1"/>
      <stop offset="1" stop-color="#E6EEF8"/>
    </linearGradient>
    <linearGradient id="card" x1="200" y1="160" x2="1260" y2="720" gradientUnits="userSpaceOnUse">
      <stop stop-color="#FFFFFF" stop-opacity="0.92"/>
      <stop offset="1" stop-color="#FFF6F1" stop-opacity="0.92"/>
    </linearGradient>
  </defs>
  <rect width="1600" height="900" fill="url(#bg)"/>
  <circle cx="1320" cy="170" r="120" fill="#FFD2C1" fill-opacity="0.55"/>
  <circle cx="240" cy="740" r="170" fill="#CFE2FF" fill-opacity="0.55"/>
  <rect x="120" y="110" width="1360" height="680" rx="36" fill="url(#card)" stroke="#DCC7BE" stroke-width="2"/>
  <rect x="900" y="185" width="460" height="520" rx="28" fill="#FAE3DB" stroke="#D7B3A7" stroke-width="2"/>
  <circle cx="1130" cy="350" r="120" fill="#FFF5F1"/>
  <rect x="1010" y="500" width="240" height="24" rx="12" fill="#E7B7AA"/>
  <rect x="960" y="548" width="340" height="18" rx="9" fill="#EFD0C5"/>
  <rect x="980" y="586" width="300" height="18" rx="9" fill="#EFD0C5"/>
  <text x="210" y="270" fill="#332A27" font-family="Segoe UI, Arial, sans-serif" font-size="92" font-weight="700">Vela</text>
  <text x="210" y="350" fill="#6B5450" font-family="Segoe UI, Arial, sans-serif" font-size="34">Local-first AI companion with a living anime avatar</text>
  <text x="210" y="430" fill="#5A4A46" font-family="Segoe UI, Arial, sans-serif" font-size="28">Placeholder hero art</text>
  <text x="210" y="476" fill="#7C6A65" font-family="Segoe UI, Arial, sans-serif" font-size="24">Replace this with polished key art or a desktop capture before release.</text>
  <rect x="210" y="550" width="210" height="54" rx="27" fill="#2E2A28"/>
  <text x="256" y="586" fill="#FFF8F4" font-family="Segoe UI, Arial, sans-serif" font-size="24" font-weight="600">Companion</text>
  <rect x="438" y="550" width="170" height="54" rx="27" fill="#EBD7CE"/>
  <text x="486" y="586" fill="#4C3E3A" font-family="Segoe UI, Arial, sans-serif" font-size="24" font-weight="600">Desktop</text>
  <rect x="626" y="550" width="170" height="54" rx="27" fill="#D5E4F7"/>
  <text x="673" y="586" fill="#314355" font-family="Segoe UI, Arial, sans-serif" font-size="24" font-weight="600">Local-first</text>
</svg>
